<?xml version="1.0" encoding="utf-8"?>
<!-- Generator: Adobe Illustrator 22.1.0, SVG Export Plug-In . SVG Version: 6.00 Build 0)  -->
<svg version="1.1" id="Camada_1" xmlns="http://www.w3.org/2000/svg" xmlns:xlink="http://www.w3.org/1999/xlink" x="0px" y="0px"
	 viewBox="0 0 546 252" style="enable-background:new 0 0 546 252;" xml:space="preserve">
<style type="text/css">
	.st0{fill:#00C2CB;}
</style>
<g>
	<path class="st0" d="M13.3,6.1h81c9.8,0,18.9,1.6,27.3,4.8c8.4,3.2,15.6,7.7,21.6,13.4c6.1,5.7,10.8,12.4,14.2,19.9c3.4,7.6,5.1,15.6,5.1,24
		c0,10.3-2.9,19.8-8.6,28.5c-5.7,8.7-13.4,15.7-23,20.9c7.1,2.1,13.6,5.1,19.6,9.1c5.9,4,11.1,8.6,15.4,13.9
		c4.3,5.3,7.7,11.2,10,17.7c2.3,6.5,3.4,13.3,3.4,20.4c0,9.4-1.8,18.2-5.5,26.4c-3.7,8.2-8.6,15.4-14.9,21.5
		c-6.3,6.1-13.8,10.9-22.5,14.4c-8.7,3.6-18.2,5.3-28.5,5.3H13.3V6.1z M39.1,28.4v81.7H93c6.4,0,12.3-1.1,17.7-3.3
		c5.4-2.2,10-5.1,13.9-8.8c3.9-3.7,6.9-7.9,9.1-12.9c2.2-4.9,3.3-10.1,3.3-15.6c0-5.7-1.1-11.1-3.3-16.1c-2.2-5-5.2-9.4-9.1-13
		c-3.9-3.7-8.5-6.6-13.9-8.8c-5.4-2.2-11.3-3.3-17.7-3.3H39.1z M106,224.1c6.9,0,13.2-1.2,19.1-3.6c5.8-2.4,10.9-5.7,15.1-10
		c4.2-4.2,7.5-9.2,9.8-14.8c2.3-5.6,3.4-11.6,3.4-18c0-6.4-1.1-12.4-3.4-17.8c-2.3-5.5-5.6-10.3-9.8-14.4c-4.2-4.1-9.3-7.4-15.1-9.8
		c-5.8-2.4-12.2-3.6-19.1-3.6H39.1v92H106z"/>
	<path class="st0" d="M350.7,246.4h-140V6.1h25.7v217.6h114.3V246.4z"/>
	<path class="st0" d="M376.1,6.1h161v17.8L404.6,223.7h131.8v22.7H372v-17.5L504.9,28.7H376.1V6.1z"/>
</g>
</svg>
